<svg width="123" height="38" viewBox="0 0 123 38" fill="none" xmlns="http://www.w3.org/2000/svg">
<path d="M114.648 2.6356C113.858 5.00763 113.462 5.40297 110.893 5.99598C109.311 6.39132 108.059 6.98433 108.059 7.24789C108.059 7.51145 109.377 8.23624 110.959 8.82925C113.133 9.68582 113.924 10.4106 114.385 11.9261C115.176 14.5617 116.164 14.4958 116.889 11.7943C117.35 10.2129 118.141 9.42226 120.051 8.69747C121.435 8.17035 122.555 7.51145 122.555 7.24789C122.555 6.98433 121.369 6.45721 119.92 5.99598C117.811 5.40297 117.284 4.87585 117.284 3.62395C117.284 1.77903 116.691 2.81092e-07 116.032 2.81092e-07C115.703 2.81092e-07 115.11 1.18602 114.648 2.6356ZM118.865 6.98433C120.908 7.44556 120.908 7.44556 119.261 7.90679C118.338 8.10446 117.218 9.1587 116.691 10.2129L115.769 12.1896L115.11 10.3447C114.78 9.29048 113.924 8.43391 112.935 8.17035C111.156 7.70912 111.42 6.58899 113.331 6.58899C114.187 6.58899 114.78 5.93009 115.11 4.74407L115.571 2.96505L116.23 4.74407C116.625 5.99598 117.482 6.65488 118.865 6.98433Z" fill="black"/>
<path d="M108.982 1.38369C108.784 1.77903 108.982 2.50382 109.509 3.03094C110.366 3.88751 110.563 3.88751 111.354 2.96505C112.145 2.04259 112.079 1.77903 111.288 1.25191C110.036 0.461229 109.575 0.527119 108.982 1.38369Z" fill="black"/>
<path d="M0 16.8019V29.6505H1.64725C3.2945 29.6505 3.2945 29.5846 3.2945 24.3793V19.174L9.42226 18.9763C15.1547 18.7786 15.4841 18.7127 15.6818 17.2632C15.8795 15.8795 15.7477 15.8136 9.61993 15.8136H3.2945V11.5307V7.2479H10.8718H18.4492V5.60065V3.9534H9.22459H0V16.8019Z" fill="black"/>
<path d="M21.0848 5.93009C21.0848 7.70912 21.2825 7.90679 23.0615 7.90679C24.8406 7.90679 25.0382 7.70912 25.0382 5.93009C25.0382 4.15106 24.8406 3.95339 23.0615 3.95339C21.2825 3.95339 21.0848 4.15106 21.0848 5.93009Z" fill="black"/>
<path d="M58.5761 12.9803C58.5761 23.7863 57.8513 26.6195 55.1498 26.8831C52.7778 27.1467 51.5259 26.0924 50.9988 23.4568C50.6693 21.6119 50.4058 21.3483 49.0221 21.6119C47.0454 22.0072 46.9136 24.4452 48.7585 27.4761C50.1422 29.7823 53.1732 30.7706 56.7312 30.0458C61.1458 29.1892 61.9365 26.6854 61.9365 13.7051V3.9534H60.2893H58.642L58.5761 12.9803Z" fill="black"/>
<path d="M33.8674 11.5307C30.8365 12.8485 29.321 14.8911 29.3869 17.8562C29.4528 19.2399 29.8481 20.8212 30.2435 21.3483C30.9024 22.139 30.7706 22.732 29.5846 24.3134C28.3327 26.0265 28.2009 26.5536 28.8598 27.9373C29.4528 29.1892 29.3869 29.9799 28.6621 31.4295C26.6195 35.5806 29.1892 37.5573 36.503 37.5573C42.7626 37.5573 45.3982 36.5689 46.5183 33.8674C47.3749 31.8907 47.3749 31.3636 46.4524 29.6505C45.2664 27.3443 44.278 27.0808 37.2278 26.8831C32.4837 26.6854 31.9566 26.5536 31.9566 25.3676C31.9566 24.1816 32.352 24.0498 35.6464 24.2475C38.8092 24.4452 39.5998 24.2475 41.313 22.7979C42.7626 21.546 43.4873 20.2282 43.8168 18.2515C44.4098 14.957 45.1346 13.8369 46.9136 13.8369C48.6927 13.8369 48.1655 11.5966 46.3206 11.3331C45.464 11.2013 44.5416 11.6625 43.8827 12.585L42.8284 14.1004L41.5106 12.6509C40.72 11.8602 39.6657 11.2013 39.0068 11.1354C38.4138 11.1354 37.4255 11.0036 36.8325 10.8718C36.3053 10.806 34.9217 11.0695 33.8674 11.5307ZM40.1929 15.9454C41.0494 17.5926 41.0494 17.988 40.1929 19.5693C38.5456 22.5344 34.4604 22.4685 33.0767 19.4375C31.6931 16.4066 33.4721 13.7051 36.8325 13.9687C38.6115 14.1004 39.4022 14.6276 40.1929 15.9454ZM42.6967 30.2435C43.2238 30.507 43.4873 31.4954 43.3556 32.352C43.1579 33.8674 42.9602 33.9333 37.2278 33.9333C32.0884 33.9333 31.2977 33.8015 31.1 32.7473C30.6388 30.4411 32.1543 29.6505 37.1619 29.6505C39.7316 29.6505 42.2354 29.914 42.6967 30.2435Z" fill="black"/>
<path d="M93.3001 11.2672C92.3118 11.5307 90.8622 12.3214 90.2033 12.9144C89.0173 13.9687 88.9514 13.9687 88.9514 12.585C88.9514 11.4649 88.6219 11.1354 87.5018 11.3331C86.0522 11.5307 85.9863 11.7284 85.7887 20.5577L85.591 29.6505H87.6336H89.6103V23.0615C89.6103 17.3291 89.808 16.2748 90.9281 15.1547C92.3777 13.7051 94.2885 13.4415 96.2652 14.4958C97.3853 15.1547 97.5171 15.9454 97.5171 22.4026V29.6505H99.4938H101.47V23.0615C101.47 17.3291 101.668 16.2748 102.788 15.1547C103.513 14.4299 104.436 13.8369 104.765 13.8369C105.16 13.8369 105.424 13.2439 105.424 12.5191C105.424 10.7401 103.974 10.8718 102.129 12.8485C100.68 14.4299 100.548 14.4299 99.7573 13.2439C98.5713 11.5307 95.6063 10.6742 93.3001 11.2672Z" fill="black"/>
<path d="M120.579 11.5307C119.92 12.3214 119.92 12.7168 120.579 13.5074C121.303 14.364 121.501 14.364 122.358 13.5074C123.214 12.6509 123.214 12.3873 122.358 11.5307C121.501 10.6742 121.303 10.6742 120.579 11.5307Z" fill="black"/>
<path d="M21.0848 20.36V29.6505H23.0615H25.1041L24.9065 20.5577L24.7088 11.5307L22.9298 11.3331L21.0848 11.1354V20.36Z" fill="black"/>
<path d="M67.2736 13.1121C64.8357 15.4182 64.7698 15.6818 66.7465 16.4066C67.8666 16.8678 68.5255 16.6043 69.7774 15.4182C72.413 12.7826 77.0912 13.5733 77.0912 16.5384C77.0912 17.3949 76.1688 17.9221 73.3355 18.4492C68.5914 19.4375 65.8899 21.9413 65.8899 25.3017C65.8899 28.6621 68.4597 30.5729 72.4789 30.1117C74.3239 29.914 75.7734 29.321 76.4323 28.4644C77.4866 27.2125 77.5525 27.2125 78.2772 28.3986C79.3974 30.1776 83.6802 30.1776 83.6802 28.3986C83.6802 27.6079 83.1531 27.0149 82.2965 26.8831C81.0446 26.6854 80.9787 26.2242 80.847 20.5577C80.7152 14.6935 80.6493 14.2981 78.8703 12.7826C77.3548 11.5307 76.3006 11.2013 73.1378 11.2013C69.8433 11.2013 69.0527 11.4648 67.2736 13.1121ZM77.0912 22.732C77.0912 26.7513 73.2696 28.9916 70.1728 26.8172C67.4054 24.7746 71.0294 20.5577 75.6417 20.4259C76.8936 20.4259 77.0912 20.7553 77.0912 22.732Z" fill="black"/>
<path d="M109.443 23.7204L109.311 29.6505H111.288H113.331V23.7204V17.7903H111.42H109.575L109.443 23.7204Z" fill="black"/>
</svg>
