<svg width="125" height="34" viewBox="0 0 125 34" fill="none" xmlns="http://www.w3.org/2000/svg">
<g clip-path="url(#clip0_205_90)">
<path d="M30.2155 0.0283413V26.2275L33.6248 26.2403V13.7701H41.8618V10.4695H33.6248V3.32892H44.3472V0.0283413H30.2155ZM50.5023 5.34523C51.7385 5.34523 52.7274 4.35634 52.7274 3.14912C52.7274 1.94191 51.7254 0.953017 50.5023 0.953017C49.266 0.953017 48.2771 1.94191 48.2771 3.14912C48.2771 4.35634 49.2791 5.34523 50.5023 5.34523ZM48.7716 8.64581V26.2275H52.1809V8.64581H48.7716Z" fill="black"/>
<path fill-rule="evenodd" clip-rule="evenodd" d="M64.8423 8.1321C60.3009 8.1321 57.1388 11.9207 57.1388 16.4157C57.1388 20.9106 60.3009 24.6992 64.8423 24.6992C66.9243 24.6992 68.629 23.903 69.8782 22.6187V24.9432C69.8782 27.8585 67.562 30.2858 64.53 30.2858C63.4369 30.2858 62.3569 29.8748 61.498 29.2841L59.7804 32.2122C61.1467 33.0855 62.7733 33.5864 64.517 33.5864C69.3577 33.5864 73.2745 29.7207 73.2745 24.9432V8.64581H69.8782V10.2126C68.629 8.92835 66.9243 8.1321 64.8423 8.1321ZM60.5611 16.4157C60.5611 13.6288 62.7212 11.4327 65.2197 11.4327C67.7181 11.4327 69.8782 13.6288 69.8782 16.4157C69.8782 19.2025 67.7181 21.3986 65.2197 21.3986C62.7212 21.3986 60.5611 19.2025 60.5611 16.4157Z" fill="black"/>
<path d="M85.5975 11.4327C83.5805 11.4327 81.9409 13.1279 81.9409 15.1185V26.2275H78.5316V8.64581H81.9409V10.2511C82.9429 8.97972 84.4134 8.1321 86.3392 8.1321C88.7336 8.1321 90.5684 9.30079 91.6354 11.0988C92.8196 9.365 94.7454 8.1321 97.0747 8.1321C100.966 8.1321 103.386 11.2272 103.399 15.0543V26.2275H99.9896V15.1057C99.9896 13.1151 98.35 11.4198 96.333 11.4198C94.316 11.4198 92.6764 13.1151 92.6764 15.1057V26.2275H89.2671V15.1057C89.2541 13.1151 87.6145 11.4327 85.5975 11.4327Z" fill="black"/>
<path fill-rule="evenodd" clip-rule="evenodd" d="M121.591 10.6364C120.068 9.08246 117.986 8.1321 115.579 8.1321C110.504 8.1321 106.886 12.383 106.886 17.4431C106.886 22.5031 110.491 26.754 115.579 26.754C117.986 26.754 120.068 25.7908 121.591 24.2497V26.2275H125V8.64581H121.591V10.6364ZM110.309 17.4431C110.309 14.0911 112.911 11.4327 115.956 11.4327C118.988 11.4327 121.604 14.0783 121.604 17.4431C121.604 20.795 119.001 23.4535 115.956 23.4535C112.911 23.4406 110.309 20.795 110.309 17.4431Z" fill="black"/>
<path d="M11.4642 17.0064C11.4642 13.8856 14.0277 11.3428 17.2028 11.3428C20.3649 11.3428 22.9414 13.8728 22.9414 17.0064C22.9414 20.1272 20.3779 22.6701 17.2028 22.6701C14.0407 22.6701 11.4642 20.1272 11.4642 17.0064Z" fill="#1ABCFE"/>
<path d="M0 28.3209C0 25.2001 2.5635 22.6572 5.7386 22.6572H11.4772V28.3209C11.4772 31.4416 8.9137 33.9845 5.7386 33.9845C2.5635 33.9845 0 31.4545 0 28.3209Z" fill="#0ACF83"/>
<path d="M11.4642 0.0283418V11.3428H17.2028C20.3649 11.3428 22.9414 8.81276 22.9414 5.67914C22.9414 2.55836 20.3779 0.0154991 17.2028 0.0154991H11.4642V0.0283418Z" fill="#FF7262"/>
<path d="M0 5.69198C0 8.81276 2.5635 11.3556 5.7386 11.3556H11.4772V0.0283413H5.7386C2.5635 0.0283413 0 2.55836 0 5.69198Z" fill="#F24E1E"/>
<path d="M0 17.0064C0 20.1272 2.5635 22.6701 5.7386 22.6701H11.4772V11.3428H5.7386C2.5635 11.3428 0 13.8856 0 17.0064Z" fill="#A259FF"/>
</g>
<defs>
<clipPath id="clip0_205_90">
<rect width="125" height="34" fill="white"/>
</clipPath>
</defs>
</svg>
