<svg width="210" height="35" viewBox="0 0 210 35" fill="none" xmlns="http://www.w3.org/2000/svg">
<g clip-path="url(#clip0_205_111)">
<path fill-rule="evenodd" clip-rule="evenodd" d="M56.1178 0.13228L38.2113 34.9441H21.392L28.8859 20.5166H28.5497C22.3673 28.4977 13.1431 33.7518 0 34.9441V20.7163C0 20.7163 8.40795 20.2225 13.3508 15.0545H0V0.132555H15.0048V12.4056L15.3416 12.4042L21.4731 0.132555H32.8209V12.3278L33.1576 12.3273L39.5191 0.13228H56.1178Z" fill="#146EF5"/>
<path d="M153.763 31.1017H158.595V3.51678H153.763V31.1017Z" fill="white"/>
<path fill-rule="evenodd" clip-rule="evenodd" d="M127.122 30.8199C128.173 31.2542 129.241 31.4712 130.326 31.4712C132.12 31.4712 133.725 31.0371 135.141 30.1686C136.557 29.3002 137.655 28.1031 138.434 26.5776C139.212 25.0401 139.602 23.2974 139.602 21.3492C139.602 19.401 139.201 17.6583 138.398 16.1209C137.596 14.5836 136.481 13.3924 135.053 12.5474C133.625 11.6907 132.002 11.2682 130.185 11.28C129.028 11.28 127.919 11.5029 126.857 11.9489C125.795 12.3949 124.91 13.0286 124.202 13.8501C124.147 13.9126 124.094 13.9758 124.042 14.0396V3.53438H119.192V31.1017H124.007L123.997 28.5264C124.122 28.6781 124.255 28.8265 124.396 28.9715C125.163 29.7579 126.072 30.374 127.122 30.8199ZM132.079 26.3662C131.288 26.8473 130.385 27.0881 129.37 27.0881C128.367 27.0881 127.447 26.8415 126.609 26.3486C125.771 25.8439 125.104 25.1575 124.609 24.289C124.125 23.4206 123.883 22.4348 123.883 21.3316C123.871 20.2285 124.107 19.2427 124.591 18.3742C125.087 17.494 125.753 16.8134 126.591 16.3322C127.429 15.8393 128.355 15.5987 129.37 15.6104C130.385 15.5987 131.288 15.8334 132.079 16.3146C132.881 16.784 133.495 17.4588 133.92 18.339C134.356 19.2074 134.575 20.2051 134.575 21.3316C134.575 22.4582 134.356 23.4558 133.92 24.3242C133.495 25.1927 132.881 25.8733 132.079 26.3662Z" fill="white"/>
<path d="M63.1188 5.18913H68.6416L73.582 23.1319L78.8377 5.18913H83.44L89.1399 22.7718L93.8838 5.18913H98.9463L91.4764 31.1017H86.7146L80.9188 13.9247L75.5982 31.1017H70.7834L63.1188 5.18913Z" fill="white"/>
<path fill-rule="evenodd" clip-rule="evenodd" d="M107.102 31.5594C105.179 31.571 103.444 31.1485 101.898 30.2918C100.364 29.4234 99.1543 28.2204 98.2691 26.6831C97.3959 25.1457 96.9592 23.3912 96.9592 21.4196C96.9592 19.5068 97.4078 17.7757 98.3045 16.2266C99.2013 14.6775 100.417 13.4687 101.951 12.6002C103.485 11.7318 105.196 11.2976 107.084 11.2976C109.209 11.2976 111.067 11.767 112.66 12.7059C114.265 13.6447 115.463 14.9767 116.254 16.7019C117.056 18.4153 117.345 20.381 117.121 22.599H101.959C102.001 23.4827 102.223 24.2867 102.624 25.0107C103.072 25.8087 103.698 26.4308 104.5 26.8767C105.302 27.3226 106.199 27.5456 107.191 27.5456C107.946 27.534 108.648 27.4048 109.297 27.1585C109.946 26.9003 110.495 26.554 110.943 26.1199C111.403 25.6856 111.728 25.1927 111.917 24.6412H116.98C116.673 25.9907 116.059 27.1936 115.139 28.2498C114.218 29.2942 113.061 30.1099 111.669 30.6967C110.276 31.2834 108.754 31.571 107.102 31.5594ZM102.641 17.7581C102.358 18.2485 102.163 18.7766 102.054 19.3424H112.104C112.032 18.6276 111.81 17.9763 111.439 17.3884C111.014 16.696 110.436 16.162 109.704 15.7865C108.973 15.3992 108.147 15.2056 107.226 15.2056C106.247 15.2056 105.356 15.4285 104.553 15.8745C103.751 16.3205 103.113 16.9483 102.641 17.7581Z" fill="white"/>
<path d="M143.16 11.7025C143.16 10.1298 143.52 8.73331 144.24 7.5128C144.959 6.28055 145.968 5.32408 147.267 4.64342C148.576 3.951 150.105 3.59307 151.851 3.56959V7.84725C151.037 7.85899 150.341 8.02917 149.762 8.35777C149.196 8.67462 148.759 9.13819 148.452 9.74845C148.17 10.3103 148.017 10.9616 147.995 11.7025H151.745V15.7689H147.992V31.1017H143.16V15.7689H140.044V11.7025H143.16Z" fill="white"/>
<path fill-rule="evenodd" clip-rule="evenodd" d="M170.88 31.5242C168.909 31.5242 167.145 31.0957 165.587 30.239C164.041 29.3706 162.826 28.1735 161.941 26.648C161.067 25.1105 160.631 23.3678 160.631 21.4196C160.631 19.4598 161.067 17.7111 161.941 16.1738C162.826 14.6246 164.041 13.4217 165.587 12.565C167.145 11.7083 168.909 11.28 170.88 11.28C172.862 11.28 174.633 11.7083 176.19 12.565C177.76 13.4217 178.981 14.6188 179.854 16.1562C180.728 17.6935 181.17 19.448 181.182 21.4196C181.17 23.3678 180.728 25.1105 179.854 26.648C178.993 28.1735 177.778 29.3706 176.208 30.239C174.639 31.0957 172.862 31.5242 170.88 31.5242ZM170.88 27.1057C171.918 27.1057 172.839 26.8709 173.641 26.4014C174.444 25.9203 175.063 25.2512 175.5 24.3946C175.937 23.5262 176.155 22.5346 176.155 21.4196C176.155 20.293 175.937 19.2955 175.5 18.427C175.063 17.5586 174.444 16.8896 173.641 16.4202C172.839 15.939 171.918 15.6985 170.88 15.6985C169.853 15.6985 168.939 15.939 168.136 16.4202C167.345 16.8896 166.732 17.5586 166.295 18.427C165.859 19.2955 165.646 20.293 165.658 21.4196C165.658 22.5346 165.876 23.5262 166.313 24.3946C166.761 25.2512 167.375 25.9203 168.154 26.4014C168.945 26.8709 169.853 27.1057 170.88 27.1057Z" fill="white"/>
<path d="M186.404 11.7025H181.023L186.847 31.1017H191.555L195.386 18.7114L199.521 31.1017H204.159L210 11.7025H205.133L201.82 23.7772L198.158 11.7025H193.449L189.805 24.0433L186.404 11.7025Z" fill="white"/>
</g>
<defs>
<clipPath id="clip0_205_111">
<rect width="210" height="35" fill="white"/>
</clipPath>
</defs>
</svg>
