<svg width="200" height="200" viewBox="0 0 200 200" fill="none" xmlns="http://www.w3.org/2000/svg">
<rect width="200" height="200" fill="#0A6354"/>
<path d="M150.745 50C151.99 50.0003 153 51.0114 153 52.2586V66.9392C153 68.1864 151.99 69.1975 150.745 69.1978H112.402V125.922L139.967 108.63C141.023 107.968 142.414 108.289 143.075 109.346L152.363 124.194C153.025 125.251 152.705 126.645 151.65 127.307L93.7115 163.656C93.6814 163.675 93.6496 163.691 93.619 163.708C92.5757 164.298 91.2445 163.97 90.6016 162.943L48.1959 95.1536C47.5351 94.0968 47.8545 92.7038 48.9095 92.0415L63.6317 82.8054C64.6871 82.1435 66.0781 82.4633 66.7393 83.52L88.7219 118.66V69.1978H49.2553C48.01 69.1975 47 68.1864 47 66.9392V52.2586C47 51.0114 48.01 50.0003 49.2553 50H150.745Z" fill="#EAE7DC"/>
</svg>
