<svg width="246" height="40" viewBox="0 0 246 40" fill="none" xmlns="http://www.w3.org/2000/svg">
<path d="M46.5467 0.0663783C41.4037 -0.469911 38.2773 2.29621 37.7239 7.64656L35.6448 27.621C35.501 29.0354 35.5729 30.3087 35.8449 31.4283C35.2978 34.7464 32.7216 35.0036 30.752 35.3172C33.3313 37.202 36.5577 36.2298 38.4336 35.3642C39.556 36.164 40.9848 36.6752 42.7324 36.8571C47.8754 37.3933 51.005 34.6241 51.5552 29.2737L53.6312 9.29933C54.1845 3.94899 51.6897 0.596395 46.5467 0.0632421V0.0663783Z" fill="#FF3737"/>
<path d="M210.312 27.621L208.236 7.6466C207.682 2.29625 204.556 -0.473006 199.413 0.0664187C194.27 0.599571 191.772 3.95216 192.328 9.3025L194.404 29.2769C194.955 34.6273 198.084 37.3965 203.224 36.8602C208.367 36.3239 210.862 32.9745 210.312 27.6241V27.621ZM198.444 8.19229C198.256 6.63674 198.866 5.9656 199.951 5.83388C201.032 5.70216 201.786 6.21022 201.973 7.76263L203.89 23.7541C204.077 25.3065 203.468 25.9808 202.383 26.1125C201.298 26.2474 200.545 25.7393 200.357 24.1837L198.44 8.18916L198.444 8.19229ZM203.061 31.9364C202.036 32.1026 201.076 31.4001 200.913 30.3746C200.751 29.349 201.448 28.3831 202.474 28.22C203.499 28.0569 204.459 28.7563 204.621 29.785C204.784 30.8105 204.087 31.7765 203.061 31.9395V31.9364Z" fill="#FF3737"/>
<path d="M7.90048 5.6088C13.0247 5.6088 15.6603 8.68226 15.6603 14.0608V15.1177H10.6799V13.7221C10.6799 11.3198 9.72319 10.4072 8.04743 10.4072C6.37166 10.4072 5.41185 11.3198 5.41185 13.7221C5.41185 20.6406 15.7041 21.9358 15.7041 31.5451C15.7041 36.9237 13.0247 40.0003 7.85359 40.0003C2.68248 40.0003 0 36.9299 0 31.5482V29.4815H4.9804V31.8807C4.9804 34.283 6.03401 35.1486 7.70977 35.1486C9.38554 35.1486 10.4391 34.283 10.4391 31.8807C10.4391 24.9685 0.143816 23.6701 0.143816 14.064C0.143816 8.6854 2.77627 5.6088 7.90048 5.6088Z" fill="white"/>
<path d="M34.3339 14.3047V18.6734C34.3339 24.0551 31.7483 26.9843 26.4803 26.9843H23.9917V39.6169H18.7236V5.99066H26.4803C31.7483 5.99066 34.3339 8.923 34.3339 14.3016V14.3047ZM23.9917 10.7984V22.1828H26.4803C28.1561 22.1828 29.0659 21.4145 29.0659 19.0121V13.9691C29.0659 11.5668 28.1561 10.7984 26.4803 10.7984H23.9917Z" fill="white"/>
<path d="M60.4281 15.2644V39.6169H55.6885V5.99066H62.2977L67.7065 26.1219V5.99066H72.3993V39.6169H66.9874L60.4281 15.2612V15.2644Z" fill="white"/>
<path d="M74.6494 5.99066H90.9287V10.7953H85.4231V39.6169H80.1551V10.7953H74.6494V5.99066Z" fill="white"/>
<path d="M108.456 39.6169H103.138L102.228 33.517H95.7659L94.8561 39.6169H90.0195L95.3814 5.99066H103.091L108.453 39.6169H108.456ZM96.435 28.9539H101.512L98.9736 11.9494L96.435 28.9539Z" fill="white"/>
<path d="M115.59 15.2644V39.6169H110.851V5.99066H117.457L122.869 26.1219V5.99066H127.561V39.6169H122.146L115.587 15.2612L115.59 15.2644Z" fill="white"/>
<path d="M136.613 20.1631H143.844V24.9646H136.613V34.8154H145.708V39.6169H131.345V5.99066H145.708V10.7953H136.613V20.1631Z" fill="white"/>
<path d="M163.569 5.99066V10.6981L153.561 34.8154H163.569V39.6169H148.149V34.9095L158.16 10.7953H148.631V5.99066H163.569Z" fill="white"/>
<path d="M182.052 33.423L186.072 5.99387H190.909L185.734 39.6201H177.881L172.713 5.99387H178.025L182.048 33.423H182.052Z" fill="white"/>
<path d="M217.218 6.23529L217.253 31.7294C217.253 34.1317 218.303 34.9973 219.979 34.9973C221.655 34.9973 222.708 34.1317 222.711 31.7325L222.68 6.23843H227.661L227.692 31.397C227.692 36.7787 225.006 39.8521 219.835 39.849C214.664 39.849 211.985 36.7724 211.985 31.3938L211.95 6.23529H217.221H217.218Z" fill="white"/>
<path d="M238.193 5.60802C243.321 5.60802 245.953 8.68149 245.953 14.0601V15.117H240.973V13.7214C240.973 11.319 240.016 10.4064 238.34 10.4064C236.665 10.4064 235.705 11.319 235.705 13.7214C235.705 20.6398 246 21.935 246 31.5443C246 36.9229 243.318 39.9995 238.147 39.9995C232.975 39.9995 230.293 36.926 230.293 31.5443V29.4776H235.273V31.8768C235.273 34.2791 236.327 35.1447 238.003 35.1447C239.679 35.1447 240.732 34.2791 240.732 31.8768C240.732 24.9583 230.437 23.6631 230.437 14.0569C230.437 8.67836 233.072 5.60489 238.19 5.60489L238.193 5.60802Z" fill="white"/>
<path d="M171.929 20.1851H163.219V24.9646H171.929V20.1851Z" fill="white"/>
</svg>
