<svg width="208" height="59" viewBox="0 0 208 59" fill="none" xmlns="http://www.w3.org/2000/svg">
<path d="M150.859 31.6434C150.151 32.1042 149.444 32.5308 148.736 32.9254C148.029 33.3193 147.296 33.6641 146.538 33.9599C145.78 34.2564 144.971 34.4861 144.113 34.6503C143.253 34.816 142.318 34.897 141.307 34.897C139.319 34.897 137.661 34.3961 136.33 33.3936C134.999 32.3911 134.334 30.9211 134.334 28.9814V28.7354C134.502 28.7027 134.688 28.6782 134.89 28.6611C135.091 28.6455 135.31 28.6366 135.546 28.6366C136.388 28.6366 137.323 28.67 138.351 28.7354C139.379 28.8015 140.279 28.8335 141.055 28.8335C142.806 28.8335 144.432 28.6291 145.931 28.2174C147.43 27.8072 148.719 26.9117 149.797 25.5316C150.841 24.2177 151.364 22.8041 151.364 21.2925C151.364 19.8463 150.976 18.5487 150.202 17.3983C149.426 16.2486 148.449 15.3449 147.271 14.6872C145.721 13.866 143.986 13.455 142.065 13.455C140.279 13.455 138.646 13.7181 137.164 14.2435C135.681 14.7697 134.401 15.5092 133.323 16.4619C132.244 17.4154 131.386 18.5487 130.745 19.8627C130.105 21.1773 129.735 22.6228 129.634 24.2006C129.061 24.2667 128.505 24.3158 127.967 24.3485C127.427 24.3812 126.871 24.48 126.299 24.6442V29.1293C126.838 28.9323 127.385 28.8261 127.941 28.809C128.497 28.7934 129.044 28.7525 129.584 28.6856V28.9323C129.651 30.6082 129.996 32.1042 130.62 33.4189C131.242 34.7328 132.067 35.8342 133.096 36.7208C134.123 37.6074 135.336 38.2904 136.734 38.766C138.132 39.2431 139.656 39.4809 141.307 39.4809C143.329 39.4809 145.13 39.1606 146.714 38.5193C148.298 37.8794 149.679 37.1481 150.859 36.3262V31.6434ZM145.754 18.4826C146.664 18.9753 147.119 19.8136 147.119 20.9967C147.119 21.6545 146.959 22.1962 146.639 22.6228C146.318 23.0509 145.898 23.3868 145.376 23.6335C144.853 23.8803 144.255 24.0445 143.581 24.1262C142.907 24.2087 142.234 24.2496 141.56 24.2496C140.785 24.2496 139.985 24.2422 139.16 24.2251C138.334 24.2087 137.635 24.1679 137.063 24.1017L134.334 24.2006C134.435 23.0836 134.73 22.1227 135.218 21.3171C135.706 20.5122 136.33 19.8463 137.088 19.3209C137.846 18.7955 138.705 18.4008 139.665 18.1378C140.625 17.8747 141.627 17.7431 142.672 17.7431C143.817 17.7431 144.845 17.9899 145.754 18.4826ZM180.118 28.2917V23.658C179.545 23.7896 178.998 23.9048 178.476 24.0036C177.953 24.1017 177.44 24.1842 176.934 24.2496V24.0036C176.9 22.0981 176.588 20.4788 176 19.1477C175.409 17.8175 174.617 16.725 173.624 15.8703C172.63 15.0164 171.476 14.3914 170.162 13.9968C168.849 13.6029 167.45 13.406 165.968 13.406C164.687 13.406 163.442 13.5866 162.229 13.9478C161.016 14.3097 159.929 14.8433 158.969 15.55C158.009 16.2568 157.217 17.1516 156.594 18.2359C155.97 19.3209 155.608 20.5858 155.508 22.032H160.157C160.19 21.2762 160.392 20.6266 160.763 20.0849C161.133 19.5424 161.605 19.0913 162.178 18.7293C162.751 18.3681 163.391 18.1051 164.098 17.9401C164.805 17.7766 165.53 17.6941 166.271 17.6941C167.046 17.6941 167.795 17.8011 168.52 18.0144C169.244 18.2284 169.893 18.5487 170.466 18.9753C171.038 19.4026 171.502 19.9452 171.855 20.6021C172.209 21.2598 172.386 22.032 172.386 22.9186V23.5599C172.386 23.7569 172.352 23.9873 172.285 24.2496V24.4466C170.87 24.02 169.481 23.7078 168.116 23.5102C166.751 23.3132 165.463 23.2144 164.25 23.2144C162.868 23.2144 161.597 23.3623 160.434 23.658C159.272 23.9538 158.261 24.422 157.403 25.0634C156.543 25.704 155.869 26.5341 155.381 27.5523C154.892 28.5712 154.648 29.787 154.648 31.1998C154.648 32.5798 154.934 33.7875 155.508 34.8227C156.08 35.858 156.838 36.7208 157.781 37.4104C158.725 38.1009 159.785 38.6181 160.965 38.9637C162.144 39.3085 163.323 39.4809 164.503 39.4809C165.951 39.4809 167.365 39.2364 168.748 38.7504C170.128 38.2629 171.308 37.4342 172.285 36.2645V38.841H176.934V37.9284C176.934 37.354 176.942 36.5974 176.96 35.661C176.976 34.7246 176.985 33.6567 176.985 32.4565V28.7844L180.118 28.2917ZM172.335 30.6275C172.301 31.0578 172.091 31.5379 171.704 32.067C171.316 32.5962 170.794 33.0919 170.137 33.5549C169.481 34.0186 168.73 34.4065 167.888 34.7216C167.046 35.0353 166.153 35.1921 165.21 35.1921C164.402 35.1921 163.644 35.0947 162.936 34.8948C162.229 34.6964 161.605 34.4236 161.066 34.0766C160.527 33.7295 160.098 33.3237 159.778 32.8607C159.457 32.3985 159.298 31.8842 159.298 31.3224C159.298 30.6275 159.482 30.0493 159.854 29.5863C160.224 29.1233 160.687 28.7428 161.243 28.4448C161.799 28.1475 162.405 27.9402 163.062 27.825C163.719 27.7091 164.334 27.6511 164.907 27.6511C165.647 27.6511 166.415 27.7173 167.206 27.8495C167.997 27.9818 168.738 28.1223 169.43 28.2709C170.12 28.4203 170.726 28.5608 171.249 28.693C171.771 28.8253 172.134 28.8915 172.335 28.8915V30.6275ZM202.403 38.8894H207.002V14.1945H202.403V27.8971C202.403 29.0802 202.176 30.1326 201.721 31.0519C201.266 31.9727 200.685 32.7522 199.978 33.3936C199.27 34.0342 198.462 34.5195 197.552 34.848C196.642 35.1765 195.732 35.3407 194.823 35.3407C193.509 35.2419 192.448 34.9714 191.639 34.5269C190.831 34.0833 190.19 33.5006 189.719 32.7768C189.247 32.0551 188.927 31.2332 188.759 30.3124C188.59 29.3931 188.506 28.4233 188.506 27.4044V14.1945H183.958V27.2565C183.958 29.5239 184.176 31.4547 184.615 33.0488C185.053 34.6429 185.718 35.9323 186.611 36.9185C187.504 37.9032 188.649 38.6263 190.048 39.087C191.445 39.5463 193.105 39.7767 195.025 39.7767C195.429 39.7767 196.002 39.7187 196.743 39.6043C197.484 39.4891 198.234 39.2758 198.992 38.9637C199.75 38.6523 200.458 38.2079 201.115 37.6334C201.771 37.0574 202.218 36.3262 202.454 35.4388L202.403 38.8894Z" fill="white"/>
<path d="M101.737 28.5876V23.9539C101.164 24.0862 100.616 24.2007 100.094 24.2995C99.5715 24.3976 99.0588 24.4801 98.5536 24.5455V24.2995C98.5193 22.394 98.2077 20.7747 97.618 19.4444C97.0283 18.1134 96.2366 17.0209 95.2431 16.1663C94.2488 15.3123 93.0953 14.6873 91.7817 14.2935C90.4674 13.8988 89.0693 13.7019 87.5874 13.7019C86.3066 13.7019 85.0609 13.8825 83.8479 14.2437C82.6349 14.6056 81.5484 15.1392 80.5884 15.8459C79.6284 16.5527 78.836 17.4475 78.2128 18.5325C77.5895 19.6168 77.2276 20.8817 77.1263 22.3279H81.7755C81.809 21.5721 82.0109 20.9226 82.382 20.3808C82.7522 19.8383 83.2239 19.3872 83.7968 19.0252C84.3698 18.6641 85.0098 18.401 85.7176 18.2367C86.4247 18.0725 87.1493 17.99 87.8906 17.99C88.6647 17.99 89.4144 18.097 90.139 18.3103C90.8636 18.5243 91.5112 18.8446 92.085 19.2712C92.6572 19.6993 93.1204 20.2411 93.4747 20.898C93.8282 21.5557 94.005 22.3279 94.005 23.2152V23.8559C94.005 24.0528 93.9715 24.2832 93.9044 24.5455V24.7432C92.4888 24.3159 91.099 24.0037 89.7352 23.8061C88.3706 23.6091 87.0822 23.5103 85.8692 23.5103C84.4871 23.5103 83.2163 23.6582 82.0536 23.9539C80.8916 24.2497 79.8806 24.7179 79.0219 25.3593C78.1625 25.9999 77.4882 26.83 77.0005 27.8482C76.5114 28.8671 76.2676 30.0836 76.2676 31.4957C76.2676 32.8757 76.5533 34.0834 77.1263 35.1186C77.6992 36.1539 78.4573 37.0167 79.4006 37.7063C80.3431 38.3968 81.4044 38.914 82.5846 39.2588C83.7633 39.6044 84.942 39.7768 86.1214 39.7768C87.5698 39.7768 88.9847 39.5323 90.3668 39.0455C91.7474 38.5588 92.9269 37.7301 93.9044 36.5604V39.1362H98.5536V38.2243C98.5536 37.6499 98.5612 36.8933 98.5788 35.9569C98.5948 35.0198 98.6039 33.9526 98.6039 32.7531V29.0804L101.737 28.5876ZM93.9547 30.9234C93.9204 31.3545 93.7101 31.8338 93.3231 32.3629C92.9353 32.8921 92.4133 33.387 91.7566 33.8508C91.099 34.3145 90.3493 34.7032 89.5074 35.0168C88.6647 35.3312 87.7718 35.4887 86.8293 35.4887C86.0209 35.4887 85.2628 35.3899 84.5549 35.1915C83.8479 34.9923 83.2239 34.7188 82.6852 34.3725C82.1458 34.0254 81.7168 33.6196 81.3968 33.1566C81.076 32.6937 80.9168 32.1801 80.9168 31.6183C80.9168 30.9234 81.1012 30.3452 81.4722 29.8822C81.8425 29.4192 82.3065 29.0387 82.862 28.7407C83.4182 28.4435 84.0246 28.2361 84.6814 28.1209C85.3382 28.0057 85.9531 27.947 86.526 27.947C87.2666 27.947 88.0331 28.0132 88.8255 28.1454C89.6164 28.2777 90.3577 28.4182 91.0488 28.5668C91.739 28.7162 92.3455 28.8567 92.8682 28.9889C93.3901 29.1212 93.7528 29.1874 93.9547 29.1874V30.9234ZM120.437 34.9462C119.144 34.9462 118.021 34.6014 117.068 33.911C116.115 33.2213 115.554 32.3511 115.384 31.2987V21.1017H120.488V16.9614H115.384V12.952H110.987V16.9614H106.439V21.1017H110.937V30.5102C110.937 31.6606 111.172 32.7687 111.645 33.8374C112.116 34.9046 112.782 35.8417 113.64 36.6466C114.5 37.4522 115.502 38.101 116.648 38.593C117.792 39.0857 119.056 39.3324 120.437 39.3324V34.9462Z" fill="white"/>
<path d="M105.934 39.3705C107.126 39.3705 108.092 38.4282 108.092 37.2659C108.092 36.1043 107.126 35.1627 105.934 35.1627C104.743 35.1627 103.776 36.1043 103.776 37.2659C103.776 38.4282 104.743 39.3705 105.934 39.3705Z" fill="white"/>
<path d="M125.712 39.3705C126.904 39.3705 127.87 38.4282 127.87 37.2659C127.87 36.1043 126.904 35.1627 125.712 35.1627C124.521 35.1627 123.555 36.1043 123.555 37.2659C123.555 38.4282 124.521 39.3705 125.712 39.3705Z" fill="white"/>
<path d="M59.092 32.9824C58.1381 33.9129 56.8702 34.4242 55.5224 34.4242C54.1746 34.4256 52.9075 33.9143 51.9528 32.9832C51.0004 32.0542 50.4755 30.8183 50.4755 29.5058C50.4755 28.1897 51.0012 26.9531 51.9543 26.0226C52.9075 25.0929 54.1738 24.5808 55.5209 24.5808C58.3049 24.5816 60.5693 26.7903 60.5693 29.5051C60.5693 30.819 60.0444 32.0534 59.092 32.9824Z" fill="white"/>
<path d="M8.61651 33.4403C7.66259 34.3708 6.39476 34.8828 5.04541 34.8828C3.69834 34.8836 2.43051 34.3715 1.47736 33.4411C0.524199 32.5121 -0.000761088 31.277 8.28207e-07 29.9638C-0.000761088 28.6469 0.524961 27.4095 1.47888 26.4791C2.43128 25.5501 3.69834 25.038 5.04465 25.038C6.394 25.038 7.66259 25.5501 8.61499 26.4798C9.56891 27.4102 10.0939 28.6461 10.0939 29.9623C10.0939 31.2755 9.56891 32.5114 8.61651 33.4403Z" fill="white"/>
<path d="M33.7426 8.66426C32.7887 9.59472 31.5209 10.106 30.1731 10.106C27.3913 10.1053 25.1261 7.8988 25.1254 5.18696C25.1254 3.87081 25.6496 2.63417 26.6042 1.70297C27.5566 0.774008 28.8245 0.261962 30.1723 0.261962C32.9541 0.262705 35.2185 2.47141 35.2208 5.18696C35.22 6.4994 34.695 7.7353 33.7426 8.66426Z" fill="white"/>
<path d="M34.3829 57.0832C33.2583 58.1801 31.7619 58.7851 30.1702 58.7858C28.5801 58.7858 27.086 58.1824 25.9614 57.084C24.8376 55.9878 24.2189 54.5282 24.2197 52.9765C24.2181 52.6509 24.2524 52.318 24.3301 51.9278C24.3522 51.8089 24.3789 51.7056 24.4056 51.5979C24.4719 51.3586 24.5458 51.1282 24.6242 50.9216C24.6677 50.8108 24.7119 50.6957 24.7652 50.5812C24.8604 50.3783 24.9785 50.1643 25.1263 49.9324C25.1545 49.8834 25.1789 49.8425 25.2041 49.7994C25.2193 49.7726 25.233 49.7451 25.2498 49.7184L26.1237 48.7419C26.2471 48.6311 26.3896 48.5211 26.5427 48.4067L26.6037 48.3614C26.6395 48.3339 26.686 48.2952 26.7317 48.2558L26.7721 48.2216L26.8231 48.1875L26.8605 48.151C26.9313 48.0871 27.0014 48.0217 27.0692 47.9556C28.6845 46.3793 29.5912 44.1528 29.5576 41.8475C29.5249 39.5511 28.558 37.3617 26.9054 35.8389L26.8567 35.7936L26.798 35.7534C26.7439 35.7185 26.6959 35.6762 26.6479 35.6353C26.59 35.587 26.5321 35.5387 26.4711 35.4926L26.366 35.4108C26.2761 35.3402 26.1877 35.2719 26.1016 35.1983L25.233 34.2114C25.214 34.1839 25.201 34.1541 25.185 34.1252L25.1439 34.0531C25.009 33.8368 24.8764 33.6176 24.7705 33.3835C24.7073 33.2542 24.6677 33.1509 24.6296 33.0431C24.5397 32.8097 24.468 32.5883 24.4063 32.3497C24.3797 32.2464 24.3507 32.1424 24.3309 32.0346C24.2532 31.6273 24.2181 31.2914 24.2181 30.9786C24.2181 29.4276 24.8376 27.9695 25.9645 26.8703C27.0883 25.7741 28.5839 25.1677 30.174 25.1662C33.4556 25.1684 36.1254 27.7755 36.1254 30.9786C36.1261 31.3026 36.0903 31.6355 36.0149 32.0287C35.9928 32.1424 35.9661 32.2464 35.9387 32.3497C35.8777 32.586 35.8054 32.8127 35.7231 33.0297C35.6781 33.1456 35.6339 33.2631 35.5836 33.3693C35.4823 33.5849 35.3627 33.8011 35.2233 34.0152L35.1509 34.1415C35.1341 34.1697 35.1189 34.1987 35.1021 34.2262L34.2229 35.2154C34.1078 35.3187 33.9768 35.4175 33.8373 35.5223L33.7429 35.5944C33.7101 35.6174 33.6629 35.6576 33.6164 35.6977L33.5798 35.7274L33.5219 35.7646L33.4838 35.8025C33.4122 35.8671 33.3436 35.9325 33.2758 35.9994C31.6598 37.5757 30.7531 39.8008 30.7874 42.1061C30.8201 44.4032 31.7885 46.5941 33.4411 48.1169L33.4899 48.1622L33.547 48.2001C33.6011 48.2358 33.6476 48.2781 33.6971 48.319C33.7558 48.3673 33.8137 48.4156 33.8739 48.4602C33.9074 48.4899 33.9722 48.5412 34.0362 48.5888C34.1078 48.6452 34.1787 48.698 34.2434 48.7612L34.2663 48.7835L35.0998 49.7288C35.1143 49.7511 35.1874 49.8819 35.2118 49.922C35.3604 50.1561 35.4815 50.3739 35.5783 50.5812C35.6332 50.6957 35.6758 50.799 35.7162 50.9112C35.8031 51.1386 35.8762 51.3653 35.9425 51.6053C35.9661 51.7064 35.9943 51.8253 36.0187 51.942C36.0888 52.3158 36.1246 52.6532 36.1254 52.9787C36.1269 54.5275 35.5082 55.9848 34.3836 57.0825L34.3829 57.0832Z" fill="white"/>
<path d="M47.0456 44.7324C45.9195 45.8308 44.4239 46.4343 42.8322 46.4343C41.2421 46.4343 39.748 45.8308 38.6227 44.7346C37.4981 43.6377 36.8794 42.1803 36.8802 40.6323C36.8794 40.3157 36.9137 39.9887 36.9914 39.574C37.0112 39.4722 37.0379 39.366 37.0676 39.2582C37.1293 39.0174 37.2002 38.7959 37.2832 38.576C37.3282 38.4593 37.3716 38.3441 37.4226 38.2348C37.5217 38.0268 37.6413 37.8112 37.7823 37.5957C37.7823 37.5957 37.8874 37.4092 37.9019 37.3869L38.7842 36.3896C38.9015 36.2863 39.0394 36.183 39.1819 36.0759L39.2619 36.0157C39.313 35.9749 39.3564 35.9407 39.396 35.902C39.4128 35.8894 39.4288 35.873 39.4448 35.8604L39.4791 35.8344L39.5225 35.7995C39.5941 35.7341 39.6665 35.6672 39.7366 35.5988C41.348 34.0255 42.2532 31.8034 42.2189 29.5003C42.1861 27.2054 41.2177 25.0131 39.5644 23.4903L39.3625 23.3045L39.3236 23.3016C39.316 23.2949 39.3084 23.2882 39.3008 23.2822C39.252 23.2399 39.2032 23.1968 39.1522 23.1559L39.0021 23.04C38.919 22.976 38.836 22.9144 38.759 22.8438L37.9133 21.8918C37.8966 21.8643 37.8166 21.7231 37.7899 21.6822C37.6261 21.4176 37.5133 21.2162 37.4257 21.0267C37.3708 20.9145 37.3297 20.8023 37.2855 20.6878C37.2055 20.479 37.1354 20.2553 37.0676 20.0019L37.0554 19.9543C37.0325 19.8681 37.0097 19.7849 36.9944 19.6957C36.9152 19.2817 36.8794 18.9488 36.8794 18.6322C36.8794 17.0805 37.4996 15.6209 38.6249 14.5232C39.7495 13.4263 41.2437 12.8221 42.833 12.8221C46.1146 12.8221 48.7874 15.4284 48.7897 18.6315C48.7889 18.9414 48.7523 19.2765 48.6761 19.6838C48.6609 19.7618 48.6426 19.8339 48.6243 19.9045L48.5961 20.0219C48.539 20.2397 48.4659 20.4686 48.3851 20.6811C48.3386 20.7993 48.2959 20.913 48.2434 21.0252C48.1519 21.2229 48.0361 21.4273 47.8807 21.6747C47.8487 21.7238 47.8266 21.7669 47.803 21.807C47.7862 21.8353 47.7717 21.8643 47.755 21.891L46.8841 22.8668C46.7409 22.9946 46.5725 23.1187 46.4102 23.2406C46.3553 23.2822 46.3157 23.3179 46.2761 23.3513C46.2616 23.3655 46.2472 23.3788 46.2312 23.3915L46.1428 23.4598C46.0704 23.5252 46.0003 23.5921 45.931 23.6598C44.3172 25.2338 43.4128 27.4566 43.4456 29.7605C43.4806 32.0554 44.4483 34.2462 46.1039 35.7683L46.1519 35.8129L46.2075 35.85C46.2639 35.8872 46.315 35.9325 46.366 35.9763C46.4186 36.0209 46.4712 36.0648 46.5237 36.1064C46.5672 36.1413 46.6235 36.1859 46.6784 36.229C46.7576 36.29 46.8384 36.3517 46.9108 36.4185L47.7664 37.3869C47.7809 37.4122 47.87 37.569 47.87 37.569C48.0201 37.8038 48.142 38.0201 48.2434 38.2356C48.2914 38.3367 48.331 38.44 48.3737 38.5477L48.3881 38.5856C48.4697 38.8004 48.5398 39.0211 48.5977 39.2478C48.6266 39.36 48.6548 39.4707 48.6761 39.5785C48.75 39.9739 48.7859 40.3113 48.7866 40.636C48.7874 42.1803 48.1695 43.6355 47.0456 44.7324Z" fill="white"/>
<path d="M21.7239 44.7324C20.5985 45.8308 19.1036 46.4343 17.5143 46.435C15.9226 46.4343 14.427 45.8315 13.3016 44.7339C12.1771 43.6384 11.5576 42.1818 11.5584 40.6316C11.5584 40.3142 11.5942 39.9791 11.6704 39.577C11.691 39.4722 11.7191 39.36 11.7481 39.2478C11.8075 39.0219 11.8769 38.8004 11.9622 38.5737C12.0064 38.4585 12.0513 38.3433 12.1054 38.2289C12.203 38.023 12.3233 37.8075 12.462 37.595L12.539 37.4605C12.5527 37.4367 12.5649 37.4107 12.5801 37.3876L13.4647 36.391C13.5935 36.2751 13.7451 36.1629 13.9036 36.0447L13.9371 36.0194C13.9912 35.9771 14.0308 35.9414 14.0719 35.9057C14.0857 35.8931 14.0994 35.8797 14.1154 35.8686L14.1634 35.8351L14.203 35.7987C14.2754 35.7326 14.347 35.6664 14.4163 35.5973C16.0285 34.0263 16.9337 31.8034 16.8987 29.4989C16.8644 27.2032 15.896 25.0131 14.2418 23.4903L14.1946 23.4465L14.1398 23.4115C14.0788 23.3707 14.0262 23.3216 13.9706 23.2733C13.9257 23.2347 13.8807 23.196 13.8319 23.1574L13.6872 23.0444C13.6003 22.979 13.5127 22.9121 13.4327 22.8385L12.6113 21.9133L12.5969 21.888L12.5793 21.8709C12.5641 21.8464 12.4811 21.6978 12.4811 21.6978C12.3089 21.425 12.1923 21.2192 12.1016 21.0267C12.0521 20.9197 12.0102 20.8052 11.9652 20.6885C11.883 20.4738 11.8098 20.2464 11.7466 20.0048L11.7367 19.9662C11.7123 19.8718 11.6879 19.7774 11.6681 19.6778C11.5934 19.2795 11.5576 18.9451 11.5576 18.6329C11.5584 17.0805 12.1771 15.6216 13.3032 14.5239C14.4285 13.4263 15.9234 12.8221 17.5135 12.8213C20.7966 12.8221 23.4671 15.4291 23.4664 18.6307C23.4671 18.9488 23.4306 19.2906 23.3544 19.6778C23.3353 19.7856 23.3125 19.8718 23.2888 19.961L23.2759 20.0093C23.2134 20.2493 23.1418 20.476 23.0641 20.6804C23.0184 20.8015 22.9749 20.9137 22.9239 21.0215C22.8248 21.2333 22.7067 21.4458 22.5612 21.6718C22.5315 21.7201 22.5056 21.7654 22.4797 21.81C22.4637 21.8368 22.4492 21.865 22.4324 21.8917L21.5639 22.866C21.4404 22.9753 21.298 23.0838 21.1486 23.196L21.0839 23.2451C21.0359 23.2822 20.994 23.3194 20.9528 23.3536C20.9368 23.3684 20.9208 23.3833 20.9025 23.3974L20.8675 23.4234L20.8233 23.4598C20.7509 23.5252 20.68 23.5914 20.6107 23.6605C18.9985 25.2323 18.0926 27.4551 18.1261 29.7575C18.1604 32.0539 19.1288 34.2462 20.7829 35.7697L20.8309 35.8143L20.8858 35.8522C20.9429 35.8879 20.9932 35.9332 21.0442 35.9771C21.0968 36.0217 21.1494 36.0648 21.2042 36.1086C21.2469 36.1421 21.3033 36.1859 21.3589 36.229C21.4366 36.29 21.5151 36.3487 21.586 36.4156L22.4363 37.3765C22.4553 37.404 22.4713 37.4352 22.4888 37.4664L22.5475 37.569C22.706 37.8149 22.8271 38.0297 22.9231 38.2326C22.9726 38.3396 23.0161 38.4578 23.0618 38.5782C23.1441 38.7922 23.2157 39.0152 23.2767 39.2522C23.3064 39.3659 23.3338 39.4722 23.3551 39.5778C23.4328 39.9902 23.4679 40.3157 23.4664 40.6308C23.4656 42.1811 22.8469 43.637 21.7239 44.7324Z" fill="white"/>
</svg>
