<?xml version="1.0" encoding="utf-8"?>
<!-- Generator: Adobe Illustrator 27.0.0, SVG Export Plug-In . SVG Version: 6.00 Build 0)  -->
<svg version="1.1" id="Calque_1" xmlns="http://www.w3.org/2000/svg" xmlns:xlink="http://www.w3.org/1999/xlink" x="0px" y="0px"
	 viewBox="0 0 508.4 141.7" style="enable-background:new 0 0 508.4 141.7;" xml:space="preserve">
<style type="text/css">
	.st0{fill:#FFFFFF;}
</style>
<g>
	<path class="st0" d="M203.1,44l-12.9,19.3l-13-19.3c-1-1.5-2.4-2.2-4.3-2.2h-9.2h-0.4l19.9,28.5l-20.3,29.2h0.3h9.5
		c1.8,0,3.2-0.7,4.3-2.2l13.3-19.5l13.2,19.5c1,1.5,2.4,2.2,4.3,2.2h9.5h0.3L197,70.3L217,41.8h-0.3h-9.3
		C205.6,41.8,204.2,42.5,203.1,44"/>
	<path class="st0" d="M459.4,63.9c0.6-2.5,1.6-4.7,3-6.7c1.4-2,3.3-3.6,5.6-4.9c2.3-1.3,5.2-1.9,8.6-1.9s6.3,0.6,8.6,1.9
		c2.3,1.3,4.2,2.9,5.6,4.8c1.4,2,2.4,4.2,3,6.7c0.6,2.5,0.9,4.9,0.8,7.4c-0.1,2.4-0.4,4.7-1,7.1c-0.6,2.3-1.6,4.4-3,6.3
		c-1.4,1.9-3.2,3.4-5.5,4.6c-2.3,1.2-5.1,1.8-8.5,1.8s-6.2-0.6-8.5-1.8c-2.3-1.2-4.1-2.7-5.5-4.5c-1.4-1.8-2.4-3.9-3-6.3
		c-0.6-2.3-0.9-4.7-1-7.1C458.6,68.8,458.8,66.4,459.4,63.9 M503.9,59.9c-1.1-3.6-2.9-6.9-5.2-9.7c-2.4-2.8-5.4-5.1-9-6.9
		c-3.6-1.8-8-2.6-13-2.6s-9.3,0.9-12.9,2.6c-3.6,1.8-6.6,4.1-9,6.9c-2.4,2.8-4.1,6.1-5.2,9.8c-1.1,3.7-1.7,7.4-1.7,11.2
		c0,3.8,0.6,7.5,1.7,11.1c1.1,3.6,2.8,6.7,5.2,9.5c2.3,2.8,5.3,5,9,6.7c3.6,1.7,8,2.5,13.1,2.5c5.1,0,9.5-0.9,13.1-2.6
		c3.6-1.7,6.6-4,8.9-6.8c2.3-2.8,4-6,5.1-9.5c1.1-3.6,1.6-7.2,1.7-11C505.5,67.2,505,63.5,503.9,59.9"/>
	<path class="st0" d="M257.1,41.8v52.1c0,2.9-2.3,5.2-5.2,5.2h-5.2V47c0-2.9,2.3-5.2,5.2-5.2H257.1z"/>
	<path class="st0" d="M296.9,2v131.6c0,2.9-2.3,5.2-5.2,5.2h-5.2V7.3c0-2.9,2.3-5.2,5.2-5.2H296.9z"/>
	<path class="st0" d="M336.6,26.2v83.3c0,2.9-2.3,5.2-5.2,5.2h-5.2V31.4c0-2.9,2.3-5.2,5.2-5.2H336.6z"/>
	<path class="st0" d="M52,94.1c0,1.4,0.5,2.6,1.5,3.6c1,1,2.2,1.5,3.6,1.5h5.8V41.4H51.7c-1,0-1.6,0.3-2,1L33.1,66.2L16.6,42.5
		c-0.5-0.7-1.1-1-2.1-1H3.4v57.8h5.8c1.4,0,2.6-0.5,3.6-1.5c1-1,1.5-2.2,1.5-3.6V57.2l16.9,24.3c0.5,0.6,1.1,0.9,1.8,0.9
		c0.7,0,1.3-0.3,1.7-0.9L52,57.3V94.1z"/>
	<path class="st0" d="M133.7,93.8c0-1.5-0.5-2.7-1.6-3.8c-1.1-1.1-2.3-1.6-3.8-1.6h-25.4v-13h18.8c1.4,0,2.6-0.5,3.6-1.5
		c1-1,1.5-2.2,1.5-3.6c0-1.4-0.5-2.6-1.5-3.6c-1-1-2.2-1.4-3.6-1.4h-18.8V52h25.2c1.5,0,2.8-0.5,3.9-1.6c1.1-1.1,1.6-2.4,1.6-3.9v-5
		H97.2c-1.4,0-2.6,0.5-3.6,1.4c-1,1-1.5,2.2-1.5,3.7v47.5c0,1.4,0.5,2.6,1.5,3.6c1,1,2.2,1.5,3.6,1.5h36.5V93.8z"/>
	<path class="st0" d="M414.5,87.8L414.5,87.8c-1.2-1.2-2.4-1.7-3.9-1.7c-0.9,0-1.8,0.3-2.8,0.9c-1.7,1.1-3.5,1.9-5.5,2.5
		c-2,0.6-3.9,0.8-5.8,0.8c-3.6,0-6.6-0.6-9.1-1.7c-2.5-1.1-4.5-2.6-6.1-4.5c-1.6-1.9-2.8-4-3.5-6.3c-0.7-2.4-1.1-4.7-1.1-7.1
		c0-2.4,0.4-4.8,1.1-7.2c0.7-2.4,1.9-4.5,3.5-6.4c1.6-1.9,3.7-3.5,6.2-4.7c2.5-1.2,5.5-1.8,9-1.8c1.8,0,3.6,0.2,5.5,0.7
		c1.8,0.5,3.6,1.2,5.2,2.2c0.1,0,0.1,0,0.2,0.1c0.4,0.2,0.8,0.4,1.3,0.6c0.5,0.1,0.9,0.2,1.4,0.2c0.3,0,0.7-0.1,1.1-0.2
		c0.9-0.2,1.8-0.6,2.6-1.3l0.2-0.2l3.8-3.7c-0.5-0.5-0.9-0.9-1.4-1.3c-0.5-0.4-0.9-0.8-1.4-1.1c-1.4-1.1-2.9-2.2-4.7-3.1
		c-4.3-2.2-8.8-3.3-13.7-3.3c-5.2,0-9.8,0.9-13.6,2.6c-3.8,1.8-7,4.1-9.6,6.9c-2.5,2.8-4.4,6.1-5.7,9.8c-1.2,3.7-1.8,7.4-1.8,11.1
		c0,3.8,0.6,7.4,1.8,11s3,6.8,5.5,9.5c2.5,2.8,5.7,5,9.5,6.7c3.8,1.7,8.4,2.6,13.8,2.6c2.7,0,5.4-0.3,7.9-0.9c2.5-0.6,5-1.5,7.3-2.7
		c0.6-0.3,1.1-0.6,1.6-0.9c0.5-0.3,1-0.7,1.5-1.1c1.2-0.8,2.4-1.8,3.7-3.1L414.5,87.8z"/>
</g>
</svg>
